<?xml version="1.0" encoding="UTF-8"?>
<svg xmlns="http://www.w3.org/2000/svg" width="4000" height="2400" viewBox="0 0 4000 2400">
<defs>
  <marker id="arrow" markerWidth="10" markerHeight="10" refX="8" refY="3.5" orient="auto">
    <path d="M0,0 L0,7 L10,3.5 z" fill="#64748b"/>
  </marker>
  <filter id="shadow" x="-15%" y="-15%" width="130%" height="130%">
    <feDropShadow dx="0" dy="3" stdDeviation="5" flood-color="#00000018"/>
  </filter>
</defs>
<rect width="4000" height="2400" fill="#f8fafc"/>

<!-- Title -->
<text x="2000" y="58" text-anchor="middle" font-size="34" font-weight="bold" fill="#0f172a" font-family="Arial, sans-serif">DwaTrack — Data Flow Diagram (Level 1)</text>

<!-- Legend -->
<circle cx="340" cy="100" r="14" fill="#0f766e"/>
<text x="362" y="105" font-size="16" fill="#475569" font-family="Arial, sans-serif">Process</text>
<rect x="480" y="88" width="60" height="24" fill="#fef3c7" stroke="#b45309" stroke-width="2"/>
<text x="548" y="105" font-size="16" fill="#475569" font-family="Arial, sans-serif">Data Store</text>
<rect x="690" y="86" width="90" height="28" rx="8" fill="#1e40af"/>
<text x="788" y="105" font-size="16" fill="#475569" font-family="Arial, sans-serif">External Entity</text>

<!-- Band separators -->
<line x1="460" y1="720" x2="3920" y2="720" stroke="#e2e8f0" stroke-width="1.5" stroke-dasharray="10 6"/>
<line x1="460" y1="1280" x2="3920" y2="1280" stroke="#e2e8f0" stroke-width="1.5" stroke-dasharray="10 6"/>

<!-- Band labels -->
<text x="90" y="480" text-anchor="middle" font-size="13" fill="#94a3b8" font-family="Arial, sans-serif" transform="rotate(-90,90,480)">PROCESSES — TOP</text>
<text x="90" y="1010" text-anchor="middle" font-size="13" fill="#94a3b8" font-family="Arial, sans-serif" transform="rotate(-90,90,1010)">DATA STORES</text>
<text x="90" y="1580" text-anchor="middle" font-size="13" fill="#94a3b8" font-family="Arial, sans-serif" transform="rotate(-90,90,1580)">PROCESSES — BOTTOM</text>

  <path d="M341.62007866560356,279.85353264839006 Q615.81890525115,408.3000561897168 918.3799213343965,420.14646735160994" fill="none" stroke="#64748b" stroke-width="2.2" marker-end="url(#arrow)"/>
  <rect x="514.20106103502" y="417.50674907825135" width="190" height="34" rx="7" fill="white" fill-opacity="0.96" stroke="#cbd5e1" stroke-width="1.2"/>
  <text x="609.20106103502" y="441.50674907825135" text-anchor="middle" font-size="14" fill="#1e293b" font-family="Arial, sans-serif"><tspan x="609.20106103502" dy="0">Credentials</tspan></text>
  <path d="M326.5469702917746,958.7408472076871 Q630,725 933.4530297082255,491.2591527923128" fill="none" stroke="#64748b" stroke-width="2.2" marker-end="url(#arrow)"/>
  <rect x="547.3932245470731" y="752.9490985347967" width="236" height="34" rx="7" fill="white" fill-opacity="0.96" stroke="#cbd5e1" stroke-width="1.2"/>
  <text x="665.3932245470731" y="776.9490985347967" text-anchor="middle" font-size="14" fill="#1e293b" font-family="Arial, sans-serif"><tspan x="665.3932245470731" dy="0">Credentials / Signup</tspan></text>
  <path d="M301.07648420428836,1686.7284335815395 Q577.6631668439569,1070.659654139794 958.9235157957116,513.2715664184603" fill="none" stroke="#64748b" stroke-width="2.2" marker-end="url(#arrow)"/>
  <rect x="458.23931137113675" y="1038.9674927383644" width="190" height="34" rx="7" fill="white" fill-opacity="0.96" stroke="#cbd5e1" stroke-width="1.2"/>
  <text x="553.2393113711368" y="1062.9674927383644" text-anchor="middle" font-size="14" fill="#1e293b" font-family="Arial, sans-serif"><tspan x="553.2393113711368" dy="0">Credentials</tspan></text>
  <path d="M1000,524 Q1000,725 1000,926" fill="none" stroke="#64748b" stroke-width="2.2" marker-end="url(#arrow)"/>
  <rect x="814" y="707" width="256" height="34" rx="7" fill="white" fill-opacity="0.96" stroke="#cbd5e1" stroke-width="1.2"/>
  <text x="942" y="731" text-anchor="middle" font-size="14" fill="#1e293b" font-family="Arial, sans-serif"><tspan x="942" dy="0">Read/Write User Record</tspan></text>
  <path d="M933.4530297082255,491.2591527923128 Q678.8182407545837,788.3780669445472 326.5469702917746,958.7408472076871" fill="none" stroke="#64748b" stroke-width="2.2" marker-end="url(#arrow)"/>
  <rect x="594.802344924365" y="784.6381320070703" width="190" height="34" rx="7" fill="white" fill-opacity="0.96" stroke="#cbd5e1" stroke-width="1.2"/>
  <text x="689.802344924365" y="808.6381320070703" text-anchor="middle" font-size="14" fill="#1e293b" font-family="Arial, sans-serif"><tspan x="689.802344924365" dy="0">JWT Token</tspan></text>
  <path d="M338.777064698376,980.8422552739777 Q1057.7692806914497,800.0257759032153 1721.222935301624,469.1577447260223" fill="none" stroke="#64748b" stroke-width="2.2" marker-end="url(#arrow)"/>
  <rect x="946.0173688470259" y="798.9065754814387" width="236" height="34" rx="7" fill="white" fill-opacity="0.96" stroke="#cbd5e1" stroke-width="1.2"/>
  <text x="1064.0173688470259" y="822.9065754814387" text-anchor="middle" font-size="14" fill="#1e293b" font-family="Arial, sans-serif"><tspan x="1064.0173688470259" dy="0">Sale Items & Payment</tspan></text>
  <path d="M343.43202320356534,269.75179491989724 Q1030,350 1716.5679767964346,430.24820508010276" fill="none" stroke="#64748b" stroke-width="2.2" marker-end="url(#arrow)"/>
  <rect x="905.2666177934043" y="389.6078255453189" width="236" height="34" rx="7" fill="white" fill-opacity="0.96" stroke="#cbd5e1" stroke-width="1.2"/>
  <text x="1023.2666177934043" y="413.6078255453189" text-anchor="middle" font-size="14" fill="#1e293b" font-family="Arial, sans-serif"><tspan x="1023.2666177934043" dy="0">Sale Items & Payment</tspan></text>
  <path d="M323.7775545986849,1705.3335246296986 Q977.9366901235226,1039.2594718107762 1736.222445401315,494.6664753703013" fill="none" stroke="#64748b" stroke-width="2.2" marker-end="url(#arrow)"/>
  <rect x="848.2224454013151" y="1007.592852968201" width="236" height="34" rx="7" fill="white" fill-opacity="0.96" stroke="#cbd5e1" stroke-width="1.2"/>
  <text x="966.2224454013151" y="1031.592852968201" text-anchor="middle" font-size="14" fill="#1e293b" font-family="Arial, sans-serif"><tspan x="966.2224454013151" dy="0">Sale Items & Payment</tspan></text>
  <path d="M1800,214 Q1800,285 1800,356" fill="none" stroke="#64748b" stroke-width="2.2" marker-end="url(#arrow)"/>
  <rect x="1619" y="267" width="246" height="34" rx="7" fill="white" fill-opacity="0.96" stroke="#cbd5e1" stroke-width="1.2"/>
  <text x="1742" y="291" text-anchor="middle" font-size="14" fill="#1e293b" font-family="Arial, sans-serif"><tspan x="1742" dy="0">Name & Phone (Credit)</tspan></text>
  <path d="M1800,524 Q1860,725 1800,926" fill="none" stroke="#64748b" stroke-width="2.2" marker-end="url(#arrow)"/>
  <rect x="1785" y="707" width="206" height="34" rx="7" fill="white" fill-opacity="0.96" stroke="#cbd5e1" stroke-width="1.2"/>
  <text x="1888" y="731" text-anchor="middle" font-size="14" fill="#1e293b" font-family="Arial, sans-serif"><tspan x="1888" dy="0">Write Transaction</tspan></text>
  <path d="M1868.4113435674033,488.7430822917747 Q2165.183512648732,773.865245405288 2531.588656432597,961.2569177082253" fill="none" stroke="#64748b" stroke-width="2.2" marker-end="url(#arrow)"/>
  <rect x="2030.9358185514739" y="778.6690265944225" width="236" height="34" rx="7" fill="white" fill-opacity="0.96" stroke="#cbd5e1" stroke-width="1.2"/>
  <text x="2148.935818551474" y="802.6690265944225" text-anchor="middle" font-size="14" fill="#1e293b" font-family="Arial, sans-serif"><tspan x="2148.935818551474" dy="0">Read Prices / Deduct</tspan></text>
  <path d="M1800,524 Q1800,1170 1800,1816" fill="none" stroke="#64748b" stroke-width="2.2" marker-end="url(#arrow)"/>
  <rect x="1639" y="1152" width="206" height="34" rx="7" fill="white" fill-opacity="0.96" stroke="#cbd5e1" stroke-width="1.2"/>
  <text x="1742" y="1176" text-anchor="middle" font-size="14" fill="#1e293b" font-family="Arial, sans-serif"><tspan x="1742" dy="0">Write Credit Debt</tspan></text>
  <path d="M1721.222935301624,469.1577447260223 Q1064.7116008643122,818.7822198790191 338.777064698376,980.8422552739777" fill="none" stroke="#64748b" stroke-width="2.2" marker-end="url(#arrow)"/>
  <rect x="972.4885289334572" y="808.2847974693406" width="190" height="34" rx="7" fill="white" fill-opacity="0.96" stroke="#cbd5e1" stroke-width="1.2"/>
  <text x="1067.4885289334572" y="832.2847974693406" text-anchor="middle" font-size="14" fill="#1e293b" font-family="Arial, sans-serif"><tspan x="1067.4885289334572" dy="0">Receipt</tspan></text>
  <path d="M341.61357984934995,990.1197690110557 Q1458.400329984206,841.5908283562142 2518.38642015065,459.8802309889442" fill="none" stroke="#64748b" stroke-width="2.2" marker-end="url(#arrow)"/>
  <rect x="1339.926991151136" y="821.6476478836106" width="236" height="34" rx="7" fill="white" fill-opacity="0.96" stroke="#cbd5e1" stroke-width="1.2"/>
  <text x="1457.926991151136" y="845.6476478836106" text-anchor="middle" font-size="14" fill="#1e293b" font-family="Arial, sans-serif"><tspan x="1457.926991151136" dy="0">Add / Edit / Restock</tspan></text>
  <path d="M343.75257678213285,266.44250590631793 Q1425.3982100669157,409.8232691300949 2516.247423217867,433.55749409368207" fill="none" stroke="#64748b" stroke-width="2.2" marker-end="url(#arrow)"/>
  <rect x="1305.250708098143" y="419.7407947241393" width="236" height="34" rx="7" fill="white" fill-opacity="0.96" stroke="#cbd5e1" stroke-width="1.2"/>
  <text x="1423.250708098143" y="443.7407947241393" text-anchor="middle" font-size="14" fill="#1e293b" font-family="Arial, sans-serif"><tspan x="1423.250708098143" dy="0">Add / Edit / Restock</tspan></text>
  <path d="M2600,524 Q2600,725 2600,926" fill="none" stroke="#64748b" stroke-width="2.2" marker-end="url(#arrow)"/>
  <rect x="2444" y="707" width="196" height="34" rx="7" fill="white" fill-opacity="0.96" stroke="#cbd5e1" stroke-width="1.2"/>
  <text x="2542" y="731" text-anchor="middle" font-size="14" fill="#1e293b" font-family="Arial, sans-serif"><tspan x="2542" dy="0">Read/Write Stock</tspan></text>
  <path d="M2518.38642015065,459.8802309889442 Q1458.400329984206,841.5908283562142 341.61357984934995,990.1197690110557" fill="none" stroke="#64748b" stroke-width="2.2" marker-end="url(#arrow)"/>
  <rect x="1362.9269911511358" y="821.6476478836106" width="190" height="34" rx="7" fill="white" fill-opacity="0.96" stroke="#cbd5e1" stroke-width="1.2"/>
  <text x="1457.9269911511358" y="845.6476478836106" text-anchor="middle" font-size="14" fill="#1e293b" font-family="Arial, sans-serif"><tspan x="1457.9269911511358" dy="0">Low Stock Alert</tspan></text>
  <path d="M342.6492806307888,994.9967866370861 Q1858.577549262693,882.4272012015025 3317.350719369211,455.00321336291387" fill="none" stroke="#64748b" stroke-width="2.2" marker-end="url(#arrow)"/>
  <rect x="1759.6481362390728" y="842.7809610362958" width="190" height="34" rx="7" fill="white" fill-opacity="0.96" stroke="#cbd5e1" stroke-width="1.2"/>
  <text x="1854.6481362390728" y="866.7809610362958" text-anchor="middle" font-size="14" fill="#1e293b" font-family="Arial, sans-serif"><tspan x="1854.6481362390728" dy="0">Expense Details</tspan></text>
  <path d="M3400,524 Q3400,725 3400,926" fill="none" stroke="#64748b" stroke-width="2.2" marker-end="url(#arrow)"/>
  <rect x="3247" y="707" width="190" height="34" rx="7" fill="white" fill-opacity="0.96" stroke="#cbd5e1" stroke-width="1.2"/>
  <text x="3342" y="731" text-anchor="middle" font-size="14" fill="#1e293b" font-family="Arial, sans-serif"><tspan x="3342" dy="0">Write Expense</tspan></text>
  <path d="M326.5469702917746,1061.2591527923128 Q630,1295 933.4530297082255,1528.7408472076872" fill="none" stroke="#64748b" stroke-width="2.2" marker-end="url(#arrow)"/>
  <rect x="499.60677545292685" y="1322.9490985347968" width="190" height="34" rx="7" fill="white" fill-opacity="0.96" stroke="#cbd5e1" stroke-width="1.2"/>
  <text x="594.6067754529269" y="1346.9490985347968" text-anchor="middle" font-size="14" fill="#1e293b" font-family="Arial, sans-serif"><tspan x="594.6067754529269" dy="0">Report Request</tspan></text>
  <path d="M1068.4113435674033,1531.2569177082253 Q1365.1835126487324,1246.134754594712 1731.5886564325967,1058.7430822917747" fill="none" stroke="#64748b" stroke-width="2.2" marker-end="url(#arrow)"/>
  <rect x="1253.935818551474" y="1205.3309734055777" width="190" height="34" rx="7" fill="white" fill-opacity="0.96" stroke="#cbd5e1" stroke-width="1.2"/>
  <text x="1348.935818551474" y="1229.3309734055777" text-anchor="middle" font-size="14" fill="#1e293b" font-family="Arial, sans-serif"><tspan x="1348.935818551474" dy="0">Read Sales Data</tspan></text>
  <path d="M1079.128673777344,1551.8104099668212 Q1820.1354214522705,1351.5204812695313 2520.871326222656,1038.1895900331788" fill="none" stroke="#64748b" stroke-width="2.2" marker-end="url(#arrow)"/>
  <rect x="1734.5319514633302" y="1359.8967058619792" width="190" height="34" rx="7" fill="white" fill-opacity="0.96" stroke="#cbd5e1" stroke-width="1.2"/>
  <text x="1829.5319514633302" y="1383.8967058619792" text-anchor="middle" font-size="14" fill="#1e293b" font-family="Arial, sans-serif"><tspan x="1829.5319514633302" dy="0">Read Stock Data</tspan></text>
  <path d="M1081.7266702604431,1560.5899158131447 Q2200,1295 3318.273329739557,1029.4100841868553" fill="none" stroke="#64748b" stroke-width="2.2" marker-end="url(#arrow)"/>
  <rect x="2110.402200986162" y="1333.4303199417345" width="206" height="34" rx="7" fill="white" fill-opacity="0.96" stroke="#cbd5e1" stroke-width="1.2"/>
  <text x="2213.402200986162" y="1357.4303199417345" text-anchor="middle" font-size="14" fill="#1e293b" font-family="Arial, sans-serif"><tspan x="2213.402200986162" dy="0">Read Expense Data</tspan></text>
  <path d="M933.4530297082255,1528.7408472076872 Q581.1817592454163,1358.3780669445473 326.5469702917746,1061.2591527923128" fill="none" stroke="#64748b" stroke-width="2.2" marker-end="url(#arrow)"/>
  <rect x="437.197655075635" y="1354.6381320070702" width="266" height="34" rx="7" fill="white" fill-opacity="0.96" stroke="#cbd5e1" stroke-width="1.2"/>
  <text x="570.197655075635" y="1378.6381320070702" text-anchor="middle" font-size="14" fill="#1e293b" font-family="Arial, sans-serif"><tspan x="570.197655075635" dy="0">Revenue & Profit Report</tspan></text>
  <path d="M338.777064698376,1039.1577447260222 Q1002.2307193085502,1370.0257759032152 1721.222935301624,1550.8422552739778" fill="none" stroke="#64748b" stroke-width="2.2" marker-end="url(#arrow)"/>
  <rect x="872.982631152974" y="1368.9065754814387" width="246" height="34" rx="7" fill="white" fill-opacity="0.96" stroke="#cbd5e1" stroke-width="1.2"/>
  <text x="995.982631152974" y="1392.9065754814387" text-anchor="middle" font-size="14" fill="#1e293b" font-family="Arial, sans-serif"><tspan x="995.982631152974" dy="0">View / Record Payment</tspan></text>
  <path d="M323.7775545986849,314.6664753703013 Q1030,920 1736.222445401315,1525.3335246296986" fill="none" stroke="#64748b" stroke-width="2.2" marker-end="url(#arrow)"/>
  <rect x="869.2541003395538" y="946.0368829371872" width="246" height="34" rx="7" fill="white" fill-opacity="0.96" stroke="#cbd5e1" stroke-width="1.2"/>
  <text x="992.2541003395538" y="970.0368829371872" text-anchor="middle" font-size="14" fill="#1e293b" font-family="Arial, sans-serif"><tspan x="992.2541003395538" dy="0">View / Record Payment</tspan></text>
  <path d="M1800,1664 Q1860,1740 1800,1816" fill="none" stroke="#64748b" stroke-width="2.2" marker-end="url(#arrow)"/>
  <rect x="1790" y="1722" width="196" height="34" rx="7" fill="white" fill-opacity="0.96" stroke="#cbd5e1" stroke-width="1.2"/>
  <text x="1888" y="1746" text-anchor="middle" font-size="14" fill="#1e293b" font-family="Arial, sans-serif"><tspan x="1888" dy="0">Read/Write Debts</tspan></text>
  <path d="M1800,1496 Q1860,1295 1800,1094" fill="none" stroke="#64748b" stroke-width="2.2" marker-end="url(#arrow)"/>
  <rect x="1765" y="1277" width="246" height="34" rx="7" fill="white" fill-opacity="0.96" stroke="#cbd5e1" stroke-width="1.2"/>
  <text x="1888" y="1301" text-anchor="middle" font-size="14" fill="#1e293b" font-family="Arial, sans-serif"><tspan x="1888" dy="0">Update Payment Status</tspan></text>
  <path d="M1721.222935301624,1550.8422552739778 Q1002.2307193085502,1370.0257759032152 338.777064698376,1039.1577447260222" fill="none" stroke="#64748b" stroke-width="2.2" marker-end="url(#arrow)"/>
  <rect x="900.9826311529739" y="1368.9065754814387" width="190" height="34" rx="7" fill="white" fill-opacity="0.96" stroke="#cbd5e1" stroke-width="1.2"/>
  <text x="995.9826311529739" y="1392.9065754814387" text-anchor="middle" font-size="14" fill="#1e293b" font-family="Arial, sans-serif"><tspan x="995.9826311529739" dy="0">Debt Summary</tspan></text>
  <path d="M341.61357984934995,1029.8802309889443 Q1396.8662816850929,1431.02263308225 2518.38642015065,1560.1197690110557" fill="none" stroke="#64748b" stroke-width="2.2" marker-end="url(#arrow)"/>
  <rect x="1304.7063146835135" y="1401.3635502466284" width="190" height="34" rx="7" fill="white" fill-opacity="0.96" stroke="#cbd5e1" stroke-width="1.2"/>
  <text x="1399.7063146835135" y="1425.3635502466284" text-anchor="middle" font-size="14" fill="#1e293b" font-family="Arial, sans-serif"><tspan x="1399.7063146835135" dy="0">Chat / Query</tspan></text>
  <path d="M2531.588656432597,1531.2569177082253 Q2200,1295 1868.4113435674033,1058.7430822917747" fill="none" stroke="#64748b" stroke-width="2.2" marker-end="url(#arrow)"/>
  <rect x="2138.6559377728922" y="1229.7635961082217" width="190" height="34" rx="7" fill="white" fill-opacity="0.96" stroke="#cbd5e1" stroke-width="1.2"/>
  <text x="2233.6559377728922" y="1253.7635961082217" text-anchor="middle" font-size="14" fill="#1e293b" font-family="Arial, sans-serif"><tspan x="2233.6559377728922" dy="0">Read Sales Data</tspan></text>
  <path d="M2684,1580 Q3190,1520 3696,1580" fill="none" stroke="#64748b" stroke-width="2.2" marker-end="url(#arrow)"/>
  <rect x="3095" y="1474" width="190" height="34" rx="7" fill="white" fill-opacity="0.96" stroke="#cbd5e1" stroke-width="1.2"/>
  <text x="3190" y="1498" text-anchor="middle" font-size="14" fill="#1e293b" font-family="Arial, sans-serif"><tspan x="3190" dy="0">Summarised Data</tspan></text>
  <path d="M3696,1580 Q3190,1520 2684,1580" fill="none" stroke="#64748b" stroke-width="2.2" marker-end="url(#arrow)"/>
  <rect x="3095" y="1474" width="190" height="34" rx="7" fill="white" fill-opacity="0.96" stroke="#cbd5e1" stroke-width="1.2"/>
  <text x="3190" y="1498" text-anchor="middle" font-size="14" fill="#1e293b" font-family="Arial, sans-serif"><tspan x="3190" dy="0">AI Response</tspan></text>
  <path d="M2518.38642015065,1560.1197690110557 Q1396.8662816850929,1431.02263308225 341.61357984934995,1029.8802309889443" fill="none" stroke="#64748b" stroke-width="2.2" marker-end="url(#arrow)"/>
  <rect x="1304.7063146835133" y="1401.3635502466286" width="190" height="34" rx="7" fill="white" fill-opacity="0.96" stroke="#cbd5e1" stroke-width="1.2"/>
  <text x="1399.7063146835133" y="1425.3635502466286" text-anchor="middle" font-size="14" fill="#1e293b" font-family="Arial, sans-serif"><tspan x="1399.7063146835133" dy="0">Insights & Tips</tspan></text>
  <path d="M342.6492806307888,1025.0032133629138 Q1794.2780634216335,1491.784001501878 3317.350719369211,1564.9967866370862" fill="none" stroke="#64748b" stroke-width="2.2" marker-end="url(#arrow)"/>
  <rect x="1706.7796701030904" y="1432.4593611864839" width="190" height="34" rx="7" fill="white" fill-opacity="0.96" stroke="#cbd5e1" stroke-width="1.2"/>
  <text x="1801.7796701030904" y="1456.4593611864839" text-anchor="middle" font-size="14" fill="#1e293b" font-family="Arial, sans-serif"><tspan x="1801.7796701030904" dy="0">Email Address</tspan></text>
  <path d="M337.43592732633545,292.5526828250837 Q1791.2468061606146,1012.1856277694469 3322.5640726736647,1547.4473171749164" fill="none" stroke="#64748b" stroke-width="2.2" marker-end="url(#arrow)"/>
  <rect x="1693.1465506534637" y="1001.5604779910027" width="190" height="34" rx="7" fill="white" fill-opacity="0.96" stroke="#cbd5e1" stroke-width="1.2"/>
  <text x="1788.1465506534637" y="1025.5604779910027" text-anchor="middle" font-size="14" fill="#1e293b" font-family="Arial, sans-serif"><tspan x="1788.1465506534637" dy="0">Email Address</tspan></text>
  <path d="M343.86232146069165,1755.1926057761386 Q1824.2769116382603,1570.1639030229862 3316.137678539308,1584.8073942238614" fill="none" stroke="#64748b" stroke-width="2.2" marker-end="url(#arrow)"/>
  <rect x="1728.8190645693212" y="1544.177015264825" width="190" height="34" rx="7" fill="white" fill-opacity="0.96" stroke="#cbd5e1" stroke-width="1.2"/>
  <text x="1823.8190645693212" y="1568.177015264825" text-anchor="middle" font-size="14" fill="#1e293b" font-family="Arial, sans-serif"><tspan x="1823.8190645693212" dy="0">Email Address</tspan></text>
  <path d="M3318.273329739557,1560.5899158131447 Q2186.1356541522464,1353.3761930431735 1081.7266702604431,1029.4100841868553" fill="none" stroke="#64748b" stroke-width="2.2" marker-end="url(#arrow)"/>
  <rect x="2081.6656260899613" y="1362.6184164633214" width="196" height="34" rx="7" fill="white" fill-opacity="0.96" stroke="#cbd5e1" stroke-width="1.2"/>
  <text x="2179.6656260899613" y="1386.6184164633214" text-anchor="middle" font-size="14" fill="#1e293b" font-family="Arial, sans-serif"><tspan x="2179.6656260899613" dy="0">Read User Record</tspan></text>
  <path d="M3427.811367894443,1500.737601500838 Q3556.6159989279727,1314.8652627817448 3572.188632105557,1089.262398499162" fill="none" stroke="#64748b" stroke-width="2.2" marker-end="url(#arrow)"/>
  <rect x="3480.0367984276936" y="1306.135718746559" width="206" height="34" rx="7" fill="white" fill-opacity="0.96" stroke="#cbd5e1" stroke-width="1.2"/>
  <text x="3583.0367984276936" y="1330.135718746559" text-anchor="middle" font-size="14" fill="#1e293b" font-family="Arial, sans-serif"><tspan x="3583.0367984276936" dy="0">Write Reset Token</tspan></text>
  <path d="M3426.5631323454145,1500.3106029637568 Q3533.079002116969,991.0263340389897 3753.4368676545855,519.6893970362431" fill="none" stroke="#64748b" stroke-width="2.2" marker-end="url(#arrow)"/>
  <rect x="3411.5158697715547" y="964.1719565905181" width="190" height="34" rx="7" fill="white" fill-opacity="0.96" stroke="#cbd5e1" stroke-width="1.2"/>
  <text x="3506.5158697715547" y="988.1719565905181" text-anchor="middle" font-size="14" fill="#1e293b" font-family="Arial, sans-serif"><tspan x="3506.5158697715547" dy="0">Email Request</tspan></text>
  <path d="M3697.080124006948,453.42736628296575 Q1988.030080278653,527.5717238260673 342.91987599305173,996.5726337170343" fill="none" stroke="#64748b" stroke-width="2.2" marker-end="url(#arrow)"/>
  <rect x="1899.7437634201358" y="551.0316618225932" width="190" height="34" rx="7" fill="white" fill-opacity="0.96" stroke="#cbd5e1" stroke-width="1.2"/>
  <text x="1994.7437634201358" y="575.0316618225932" text-anchor="middle" font-size="14" fill="#1e293b" font-family="Arial, sans-serif"><tspan x="1994.7437634201358" dy="0">Reset Link</tspan></text>
  <rect x="880" y="974" width="240" height="72" fill="#fef3c7" fill-opacity="0.95" stroke="none"/>
  <line x1="880" y1="974" x2="1120" y2="974" stroke="#b45309" stroke-width="3"/>
  <line x1="880" y1="986" x2="1120" y2="986" stroke="#b45309" stroke-width="1.5"/>
  <line x1="880" y1="1046" x2="1120" y2="1046" stroke="#b45309" stroke-width="3"/>
  <line x1="880" y1="974" x2="880" y2="1046" stroke="#b45309" stroke-width="2.5"/>
  <line x1="1120" y1="974" x2="1120" y2="1046" stroke="#b45309" stroke-width="2.5"/>
  <text x="1000" y="1005.6" text-anchor="middle" font-size="15" fill="#92400e" font-weight="bold" font-family="Arial, sans-serif">D1: Users &</text><text x="1000" y="1027.6" text-anchor="middle" font-size="15" fill="#92400e" font-weight="bold" font-family="Arial, sans-serif">Team Members</text>
  <rect x="1680" y="974" width="240" height="72" fill="#fef3c7" fill-opacity="0.95" stroke="none"/>
  <line x1="1680" y1="974" x2="1920" y2="974" stroke="#b45309" stroke-width="3"/>
  <line x1="1680" y1="986" x2="1920" y2="986" stroke="#b45309" stroke-width="1.5"/>
  <line x1="1680" y1="1046" x2="1920" y2="1046" stroke="#b45309" stroke-width="3"/>
  <line x1="1680" y1="974" x2="1680" y2="1046" stroke="#b45309" stroke-width="2.5"/>
  <line x1="1920" y1="974" x2="1920" y2="1046" stroke="#b45309" stroke-width="2.5"/>
  <text x="1800" y="1005.6" text-anchor="middle" font-size="15" fill="#92400e" font-weight="bold" font-family="Arial, sans-serif">D2: Transactions</text><text x="1800" y="1027.6" text-anchor="middle" font-size="15" fill="#92400e" font-weight="bold" font-family="Arial, sans-serif">& Receipts</text>
  <rect x="2480" y="974" width="240" height="72" fill="#fef3c7" fill-opacity="0.95" stroke="none"/>
  <line x1="2480" y1="974" x2="2720" y2="974" stroke="#b45309" stroke-width="3"/>
  <line x1="2480" y1="986" x2="2720" y2="986" stroke="#b45309" stroke-width="1.5"/>
  <line x1="2480" y1="1046" x2="2720" y2="1046" stroke="#b45309" stroke-width="3"/>
  <line x1="2480" y1="974" x2="2480" y2="1046" stroke="#b45309" stroke-width="2.5"/>
  <line x1="2720" y1="974" x2="2720" y2="1046" stroke="#b45309" stroke-width="2.5"/>
  <text x="2600" y="1005.6" text-anchor="middle" font-size="15" fill="#92400e" font-weight="bold" font-family="Arial, sans-serif">D3: Products</text><text x="2600" y="1027.6" text-anchor="middle" font-size="15" fill="#92400e" font-weight="bold" font-family="Arial, sans-serif">& Stock</text>
  <rect x="3280" y="985" width="240" height="50" fill="#fef3c7" fill-opacity="0.95" stroke="none"/>
  <line x1="3280" y1="985" x2="3520" y2="985" stroke="#b45309" stroke-width="3"/>
  <line x1="3280" y1="997" x2="3520" y2="997" stroke="#b45309" stroke-width="1.5"/>
  <line x1="3280" y1="1035" x2="3520" y2="1035" stroke="#b45309" stroke-width="3"/>
  <line x1="3280" y1="985" x2="3280" y2="1035" stroke="#b45309" stroke-width="2.5"/>
  <line x1="3520" y1="985" x2="3520" y2="1035" stroke="#b45309" stroke-width="2.5"/>
  <text x="3400" y="1016.6" text-anchor="middle" font-size="15" fill="#92400e" font-weight="bold" font-family="Arial, sans-serif">D4: Expenses</text>
  <rect x="1680" y="1864" width="240" height="72" fill="#fef3c7" fill-opacity="0.95" stroke="none"/>
  <line x1="1680" y1="1864" x2="1920" y2="1864" stroke="#b45309" stroke-width="3"/>
  <line x1="1680" y1="1876" x2="1920" y2="1876" stroke="#b45309" stroke-width="1.5"/>
  <line x1="1680" y1="1936" x2="1920" y2="1936" stroke="#b45309" stroke-width="3"/>
  <line x1="1680" y1="1864" x2="1680" y2="1936" stroke="#b45309" stroke-width="2.5"/>
  <line x1="1920" y1="1864" x2="1920" y2="1936" stroke="#b45309" stroke-width="2.5"/>
  <text x="1800" y="1895.6" text-anchor="middle" font-size="15" fill="#92400e" font-weight="bold" font-family="Arial, sans-serif">D5: Customers</text><text x="1800" y="1917.6" text-anchor="middle" font-size="15" fill="#92400e" font-weight="bold" font-family="Arial, sans-serif">& Debts</text>
  <rect x="3480" y="974" width="240" height="72" fill="#fef3c7" fill-opacity="0.95" stroke="none"/>
  <line x1="3480" y1="974" x2="3720" y2="974" stroke="#b45309" stroke-width="3"/>
  <line x1="3480" y1="986" x2="3720" y2="986" stroke="#b45309" stroke-width="1.5"/>
  <line x1="3480" y1="1046" x2="3720" y2="1046" stroke="#b45309" stroke-width="3"/>
  <line x1="3480" y1="974" x2="3480" y2="1046" stroke="#b45309" stroke-width="2.5"/>
  <line x1="3720" y1="974" x2="3720" y2="1046" stroke="#b45309" stroke-width="2.5"/>
  <text x="3600" y="1005.6" text-anchor="middle" font-size="15" fill="#92400e" font-weight="bold" font-family="Arial, sans-serif">D6: Reset</text><text x="3600" y="1027.6" text-anchor="middle" font-size="15" fill="#92400e" font-weight="bold" font-family="Arial, sans-serif">Tokens</text>
  <rect x="160" y="981" width="200" height="58" rx="14" fill="#1e40af" filter="url(#shadow)"/>
  <text x="260" y="1017" text-anchor="middle" font-size="17" fill="white" font-weight="bold" font-family="Arial, sans-serif">👤 Owner</text>
  <rect x="160" y="231" width="200" height="58" rx="14" fill="#2563eb" filter="url(#shadow)"/>
  <text x="260" y="267" text-anchor="middle" font-size="17" fill="white" font-weight="bold" font-family="Arial, sans-serif">👤 Manager</text>
  <rect x="160" y="1731" width="200" height="58" rx="14" fill="#7c3aed" filter="url(#shadow)"/>
  <text x="260" y="1767" text-anchor="middle" font-size="17" fill="white" font-weight="bold" font-family="Arial, sans-serif">👤 Cashier</text>
  <rect x="1700" y="101" width="200" height="58" rx="14" fill="#0891b2" filter="url(#shadow)"/>
  <text x="1800" y="137" text-anchor="middle" font-size="17" fill="white" font-weight="bold" font-family="Arial, sans-serif">👥 Customer</text>
  <rect x="3680" y="1551" width="200" height="58" rx="14" fill="#1f2937" filter="url(#shadow)"/>
  <text x="3780" y="1587" text-anchor="middle" font-size="17" fill="white" font-weight="bold" font-family="Arial, sans-serif">🤖 Groq AI</text>
  <rect x="3680" y="411" width="200" height="58" rx="14" fill="#be185d" filter="url(#shadow)"/>
  <text x="3780" y="447" text-anchor="middle" font-size="17" fill="white" font-weight="bold" font-family="Arial, sans-serif">📧 SMTP</text>
  <circle cx="1000" cy="440" r="80" fill="#0f766e" stroke="#0d9488" stroke-width="3" filter="url(#shadow)"/>
  <text x="1000" y="380" text-anchor="middle" font-size="13" fill="#ccfbf1" font-family="Arial, sans-serif" font-weight="bold">1.0</text>
  <text x="1000" y="436" text-anchor="middle" font-size="16" fill="white" font-weight="bold" font-family="Arial, sans-serif">Authenticate</text><text x="1000" y="456" text-anchor="middle" font-size="16" fill="white" font-weight="bold" font-family="Arial, sans-serif">User</text>
  <circle cx="1800" cy="440" r="80" fill="#0f766e" stroke="#0d9488" stroke-width="3" filter="url(#shadow)"/>
  <text x="1800" y="380" text-anchor="middle" font-size="13" fill="#ccfbf1" font-family="Arial, sans-serif" font-weight="bold">2.0</text>
  <text x="1800" y="436" text-anchor="middle" font-size="16" fill="white" font-weight="bold" font-family="Arial, sans-serif">Record</text><text x="1800" y="456" text-anchor="middle" font-size="16" fill="white" font-weight="bold" font-family="Arial, sans-serif">Sale</text>
  <circle cx="2600" cy="440" r="80" fill="#0f766e" stroke="#0d9488" stroke-width="3" filter="url(#shadow)"/>
  <text x="2600" y="380" text-anchor="middle" font-size="13" fill="#ccfbf1" font-family="Arial, sans-serif" font-weight="bold">3.0</text>
  <text x="2600" y="436" text-anchor="middle" font-size="16" fill="white" font-weight="bold" font-family="Arial, sans-serif">Manage</text><text x="2600" y="456" text-anchor="middle" font-size="16" fill="white" font-weight="bold" font-family="Arial, sans-serif">Inventory</text>
  <circle cx="3400" cy="440" r="80" fill="#0f766e" stroke="#0d9488" stroke-width="3" filter="url(#shadow)"/>
  <text x="3400" y="380" text-anchor="middle" font-size="13" fill="#ccfbf1" font-family="Arial, sans-serif" font-weight="bold">4.0</text>
  <text x="3400" y="436" text-anchor="middle" font-size="16" fill="white" font-weight="bold" font-family="Arial, sans-serif">Manage</text><text x="3400" y="456" text-anchor="middle" font-size="16" fill="white" font-weight="bold" font-family="Arial, sans-serif">Expenses</text>
  <circle cx="1000" cy="1580" r="80" fill="#0f766e" stroke="#0d9488" stroke-width="3" filter="url(#shadow)"/>
  <text x="1000" y="1520" text-anchor="middle" font-size="13" fill="#ccfbf1" font-family="Arial, sans-serif" font-weight="bold">5.0</text>
  <text x="1000" y="1576" text-anchor="middle" font-size="16" fill="white" font-weight="bold" font-family="Arial, sans-serif">Generate</text><text x="1000" y="1596" text-anchor="middle" font-size="16" fill="white" font-weight="bold" font-family="Arial, sans-serif">Reports</text>
  <circle cx="1800" cy="1580" r="80" fill="#0f766e" stroke="#0d9488" stroke-width="3" filter="url(#shadow)"/>
  <text x="1800" y="1520" text-anchor="middle" font-size="13" fill="#ccfbf1" font-family="Arial, sans-serif" font-weight="bold">6.0</text>
  <text x="1800" y="1576" text-anchor="middle" font-size="16" fill="white" font-weight="bold" font-family="Arial, sans-serif">Manage</text><text x="1800" y="1596" text-anchor="middle" font-size="16" fill="white" font-weight="bold" font-family="Arial, sans-serif">Debtors</text>
  <circle cx="2600" cy="1580" r="80" fill="#0f766e" stroke="#0d9488" stroke-width="3" filter="url(#shadow)"/>
  <text x="2600" y="1520" text-anchor="middle" font-size="13" fill="#ccfbf1" font-family="Arial, sans-serif" font-weight="bold">7.0</text>
  <text x="2600" y="1576" text-anchor="middle" font-size="16" fill="white" font-weight="bold" font-family="Arial, sans-serif">AI</text><text x="2600" y="1596" text-anchor="middle" font-size="16" fill="white" font-weight="bold" font-family="Arial, sans-serif">Assistant</text>
  <circle cx="3400" cy="1580" r="80" fill="#0f766e" stroke="#0d9488" stroke-width="3" filter="url(#shadow)"/>
  <text x="3400" y="1520" text-anchor="middle" font-size="13" fill="#ccfbf1" font-family="Arial, sans-serif" font-weight="bold">8.0</text>
  <text x="3400" y="1576" text-anchor="middle" font-size="16" fill="white" font-weight="bold" font-family="Arial, sans-serif">Reset</text><text x="3400" y="1596" text-anchor="middle" font-size="16" fill="white" font-weight="bold" font-family="Arial, sans-serif">Password</text></svg>